<?xml version="1.0" encoding="iso-8859-1"?>
<!-- Uploaded to: SVG Repo, www.svgrepo.com, Generator: SVG Repo Mixer Tools -->
<svg height="800px" width="800px" version="1.1" id="Layer_1" xmlns="http://www.w3.org/2000/svg" xmlns:xlink="http://www.w3.org/1999/xlink" 
	 viewBox="0 0 512 512" xml:space="preserve">
<polygon style="fill:#E0B76E;" points="372.719,190.761 256.003,503.904 36.689,380.246 36.689,132.907 "/>
<polygon style="fill:#F4CE8F;" points="256.003,9.249 36.689,132.907 256.003,256.576 256.003,503.904 475.317,380.246 
	475.317,132.907 "/>
<polygon style="fill:#F2CA7F;" points="256.001,256.576 256.001,503.904 475.315,380.246 475.315,132.907 "/>
<path d="M479.573,124.783L260.257,1.117c-2.643-1.49-5.871-1.49-8.514,0L32.427,124.783c-2.724,1.537-4.41,4.423-4.41,7.55v247.332
	c0,3.128,1.685,6.014,4.41,7.55l219.315,123.666c1.322,0.745,2.789,1.118,4.258,1.118c1.469,0,2.935-0.372,4.258-1.118
	l219.315-123.666c2.725-1.537,4.41-4.423,4.41-7.55V132.334C483.983,129.205,482.298,126.319,479.573,124.783z M118.477,123.666
	H69.703l177.63-100.16v100.16h-95.34c-4.788,0-8.668,3.881-8.668,8.668s3.88,8.668,8.668,8.668h95.34v100.16l-177.63-100.16h48.774
	c4.788,0,8.668-3.881,8.668-8.668S123.265,123.666,118.477,123.666z M264.667,23.505l177.628,100.16H264.667L264.667,23.505
	L264.667,23.505z M264.667,141.001h177.628l-177.629,100.16L264.667,141.001L264.667,141.001z M45.352,147.171l201.98,113.891
	v227.432L45.352,374.603V147.171z M264.667,488.493v-227.43l201.98-113.891v227.432L264.667,488.493z"/>
<path d="M90.291,236.552l98.803,55.713c1.345,0.758,2.807,1.119,4.249,1.119c3.026,0,5.966-1.588,7.558-4.412
	c2.351-4.17,0.877-9.456-3.294-11.806l-98.803-55.713c-4.166-2.348-9.456-0.877-11.808,3.294
	C84.647,228.914,86.12,234.2,90.291,236.552z"/>
<path d="M197.608,326.749l-62.618-35.308c-4.17-2.351-9.457-0.877-11.808,3.294c-2.351,4.17-0.877,9.456,3.294,11.808l62.618,35.308
	c1.345,0.758,2.807,1.119,4.249,1.119c3.027,0,5.966-1.588,7.558-4.412C203.252,334.387,201.777,329.101,197.608,326.749z"/>
<path d="M112.885,278.977l-14.081-7.941c-4.166-2.351-9.456-0.877-11.808,3.293c-2.351,4.17-0.877,9.456,3.294,11.808l14.081,7.941
	c1.345,0.759,2.807,1.12,4.249,1.12c3.026,0,5.966-1.588,7.558-4.411C118.529,286.615,117.056,281.329,112.885,278.977z"/>
<path d="M406.737,298.18l-0.5-61.376c-0.024-3.072-1.675-5.901-4.335-7.437c-2.663-1.536-5.936-1.547-8.608-0.034l-55.809,31.641
	c-2.737,1.552-4.418,4.464-4.393,7.61l0.502,61.376c0.094,11.545,4.707,20.798,12.657,25.386c3.523,2.033,7.511,3.042,11.737,3.042
	c1.27,0,2.562-0.098,3.868-0.28l0.194,23.817l-16.215,9.193c-4.165,2.361-5.626,7.651-3.265,11.816
	c1.596,2.814,4.529,4.394,7.548,4.394c1.448,0,2.917-0.364,4.267-1.129l41.298-23.414c4.165-2.361,5.626-7.651,3.265-11.816
	c-2.362-4.164-7.653-5.627-11.816-3.265l-7.827,4.438l-0.174-21.422C395.074,339.264,406.892,317.235,406.737,298.18z
	 M354.916,340.335c-2.492-1.439-3.945-5.27-3.987-10.513l-0.459-56.279l38.552-21.859l0.379,46.638
	c0.12,14.565-10.527,32.962-23.25,40.176C361.596,341.079,357.396,341.768,354.916,340.335z"/>
</svg>